<svg id="Icons" xmlns="http://www.w3.org/2000/svg" viewBox="0 0 215 215"><defs><style>.cls-1{fill:#fff;}</style></defs><g id="Behance"><circle id="Background" cx="107.5" cy="107.5" r="107.5"/><g id="Behance-2" data-name="Behance"><path id="Behance-3" data-name="Behance" class="cls-1" d="M1193.4,900a38.87,38.87,0,0,1,9.38,1,20.93,20.93,0,0,1,7.25,3.1,14.28,14.28,0,0,1,4.66,5.75,21.73,21.73,0,0,1,1.66,8.9,17.12,17.12,0,0,1-2.46,9.54,18.12,18.12,0,0,1-7.32,6.26,17.43,17.43,0,0,1,9.86,7,21.75,21.75,0,0,1,3.27,12.13,22.51,22.51,0,0,1-2.07,9.89,19.19,19.19,0,0,1-5.65,6.87,24.78,24.78,0,0,1-8.19,3.92,35,35,0,0,1-9.38,1.27h-34.8V900Zm-2,30.56a10.93,10.93,0,0,0,6.92-2.1,8.21,8.21,0,0,0,2.73-6.87,9.28,9.28,0,0,0-.87-4.34,6.26,6.26,0,0,0-2.41-2.59,9.1,9.1,0,0,0-3.45-1.34,20.5,20.5,0,0,0-4.06-.35h-14.87v17.66h16Zm.87,32.18a18.45,18.45,0,0,0,4.45-.48,10.6,10.6,0,0,0,3.73-1.61,8,8,0,0,0,2.6-3,10.74,10.74,0,0,0,.93-4.9,10.1,10.1,0,0,0-3.13-8.34,12.65,12.65,0,0,0-8.25-2.46h-17.21v20.81Z" transform="translate(-1108 -831)"/><path id="Behance-4" data-name="Behance" class="cls-1" d="M1242.15,962.45a12.46,12.46,0,0,0,9.25,3.3,12.28,12.28,0,0,0,7.45-2.31,9.56,9.56,0,0,0,3.79-4.82h12.57a24.75,24.75,0,0,1-9.25,14.09,25.7,25.7,0,0,1-15,4.28,28.37,28.37,0,0,1-11.11-2.11,23.71,23.71,0,0,1-8.38-5.89,27.31,27.31,0,0,1-5.25-9.11,34.41,34.41,0,0,1-1.87-11.64,33.72,33.72,0,0,1,1.93-11.43A25.78,25.78,0,0,1,1251,919.28a23.68,23.68,0,0,1,11.55,2.74,24.25,24.25,0,0,1,8.12,7.22,30.24,30.24,0,0,1,4.59,10.38,40.67,40.67,0,0,1,1,12.2H1238.8A14.91,14.91,0,0,0,1242.15,962.45Zm16.43-28.74a10.4,10.4,0,0,0-8-3,11.32,11.32,0,0,0-5.65,1.27,12.09,12.09,0,0,0-3.59,3,11.62,11.62,0,0,0-1.93,3.85,16,16,0,0,0-.66,3.58h23.19a15.75,15.75,0,0,0-3.3-8.69Z" transform="translate(-1108 -831)"/><rect id="Behance-5" data-name="Behance" class="cls-1" x="127.71" y="74.03" width="29.07" height="7.43"/></g></g></svg>