<svg id="Icons" xmlns="http://www.w3.org/2000/svg" viewBox="0 0 215 215"><defs><style>.cls-1{fill:#fff;fill-rule:evenodd;}</style></defs><g id="Messenger"><circle id="Background" cx="107.5" cy="107.5" r="107.5"/><path id="Messenger-2" data-name="Messenger" class="cls-1" d="M1434.22,131.83,1463,86.21a14.69,14.69,0,0,1,21.24-3.91l22.87,17.15a5.88,5.88,0,0,0,7.07,0L1545,76a4.65,4.65,0,0,1,6.74,6.18L1523,127.79a14.69,14.69,0,0,1-21.23,3.92l-22.87-17.16a5.9,5.9,0,0,0-7.08,0L1441,138A4.65,4.65,0,0,1,1434.22,131.83Z" transform="translate(-1385)"/></g></svg>