<svg id="Icons" xmlns="http://www.w3.org/2000/svg" viewBox="0 0 215 215"><defs><style>.cls-1{fill:#fff;}</style></defs><g id="Pinterest"><circle id="Background" cx="107.5" cy="107.5" r="107.5"/><path id="Pinterest-2" data-name="Pinterest" class="cls-1" d="M109.16,612.63c-29.87,0-45.41,19.92-45.41,41.82,0,10.16,5.18,22.71,13.94,26.69,1.2.8,2,.4,2-.8l2-7.56c.2-1,.2-1.6-.4-2a26.31,26.31,0,0,1-5.18-15.94c0-15.33,11.55-29.87,31.07-29.87,17.13,0,29.08,11.35,29.08,27.88,0,18.72-9.56,31.87-21.91,31.87A10.6,10.6,0,0,1,103.78,672c2-8.17,6-16.73,6-22.7,0-5.58-2.79-10-8.77-10-6.77,0-12.74,7.17-12.74,16.73a25,25,0,0,0,2,10.35l-8,34.26c-1.19,6.17-.59,15.14,0,20.51.09.94.56,2.58,1.76,2.81a2.66,2.66,0,0,0,2.53-1.39c3-4.79,7.28-12.64,8.86-18.55l4.78-16.53c2.19,4.39,8.76,8,15.53,8,21.11,0,35.85-19.12,35.85-43C151.58,629.76,133.06,612.63,109.16,612.63Z" transform="translate(0 -554)"/></g></svg>