<svg id="Icons" xmlns="http://www.w3.org/2000/svg" viewBox="0 0 215 215"><defs><style>.cls-1{fill:#fff;}</style></defs><g id="Snapchat"><circle id="Background" cx="107.5" cy="107.5" r="107.5"/><path id="Snapchat-2" data-name="Snapchat" class="cls-1" d="M439.47,690.6c-19.72-9.55-22.87-24.29-23-25.38-.17-1.33-.36-2.37,1.1-3.72s7.66-5.17,9.4-6.38c2.87-2,4.13-4,3.2-6.47a3.86,3.86,0,0,0-3.91-2.34,7.45,7.45,0,0,0-1.56.17c-3.15.69-6.21,2.26-8,2.69a2.5,2.5,0,0,1-.66.09c-.94,0-1.3-.42-1.21-1.56a112.88,112.88,0,0,0,.15-16.44c-.75-8.64-3.53-12.92-6.84-16.71-1.59-1.83-9-9.72-23.34-9.72s-21.73,7.89-23.32,9.7c-3.31,3.79-6.1,8.07-6.84,16.71a115.85,115.85,0,0,0,.15,16.44c.07,1.08-.27,1.56-1.21,1.56a3.51,3.51,0,0,1-.65-.09c-1.77-.43-4.83-2-8-2.69a7.46,7.46,0,0,0-1.56-.18,3.88,3.88,0,0,0-3.91,2.35c-.93,2.46.33,4.46,3.2,6.47,1.74,1.21,8,5.07,9.4,6.38s1.27,2.39,1.1,3.71c-.14,1.11-3.29,15.86-23,25.39-1.16.56-3.12,1.75.34,3.66,5.44,3,9.07,2.69,11.88,4.5,2.39,1.54,1,4.86,2.72,6.06,2.13,1.47,8.44-.11,16.6,2.58,6.83,2.26,11,8.62,23.11,8.62s16.39-6.39,23.11-8.62c8.14-2.69,14.46-1.11,16.6-2.58,1.73-1.2.33-4.52,2.71-6.06,2.82-1.81,6.44-1.49,11.89-4.5C442.6,692.35,440.63,691.16,439.47,690.6Z" transform="translate(-277 -554)"/></g></svg>