<svg id="Icons" xmlns="http://www.w3.org/2000/svg" viewBox="0 0 215 215"><defs><style>.cls-1{fill:#fff;}</style></defs><g id="Spotify"><circle id="Background" cx="107.5" cy="107.5" r="107.5"/><g id="Spotify-2" data-name="Spotify"><path id="Spotify-3" data-name="Spotify" class="cls-1" d="M702.1,971.47c-24.05-14.69-53.86-18.11-88.6-10.16A5.68,5.68,0,1,0,616,972.39c31.76-7.26,58.71-4.3,80.13,8.79h0a5.69,5.69,0,0,0,5.92-9.72Z" transform="translate(-554 -831)"/><path id="Spotify-4" data-name="Spotify" class="cls-1" d="M712.8,944.67c-28.15-17.29-69.33-22.17-102.47-12.12a7.12,7.12,0,0,0,4.13,13.61c29-8.8,66.39-4.44,90.9,10.64a7.13,7.13,0,0,0,9.78-2.35h0A7.11,7.11,0,0,0,712.8,944.67Z" transform="translate(-554 -831)"/><path id="Spotify-5" data-name="Spotify" class="cls-1" d="M605.17,901.72l-.23.07a8.53,8.53,0,0,0,5.19,16.26c28.06-8.53,76.57-6.92,106,10.54h0a8.53,8.53,0,1,0,8.71-14.68C691,893.83,637.39,891.93,605.17,901.72Z" transform="translate(-554 -831)"/></g></g></svg>