<svg id="Icons" xmlns="http://www.w3.org/2000/svg" viewBox="0 0 215 215"><defs><style>.cls-1{fill:#fff;}</style></defs><g id="Vimeo"><circle id="Background" cx="107.5" cy="107.5" r="107.5"/><path id="Vimeo-2" data-name="Vimeo" class="cls-1" d="M165.94,915.15q-.81,17.69-24.71,48.43-24.7,32.1-41.8,32.11-10.61,0-17.92-19.56l-9.78-35.85q-5.45-19.54-11.67-19.56-1.37,0-9.51,5.71l-5.7-7.34q9-7.87,17.68-15.77,12-10.32,18-10.87,14.14-1.37,17.41,19.33,3.52,22.32,4.9,27.76,4.08,18.53,9,18.52,3.81,0,11.43-12t8.15-18.29q1.09-10.37-8.15-10.38a22.72,22.72,0,0,0-9,2q8.94-29.25,34.12-28.43Q167,891.47,165.94,915.15Z" transform="translate(0 -831)"/></g></svg>